<?xml version="1.0" standalone="no"?>
<!DOCTYPE svg PUBLIC "-//W3C//DTD SVG 20010904//EN"
 "http://www.w3.org/TR/2001/REC-SVG-20010904/DTD/svg10.dtd">
<svg version="1.0" xmlns="http://www.w3.org/2000/svg"
 width="256.000000pt" height="256.000000pt" viewBox="0 0 256.000000 256.000000"
 preserveAspectRatio="xMidYMid meet">

<g transform="translate(0.000000,256.000000) scale(0.100000,-0.100000)"
fill="#000000" stroke="none">
<path d="M1015 2466 c-35 -15 -95 -79 -95 -101 0 -12 -17 -15 -84 -15 -89 0
-116 -11 -116 -50 0 -18 -12 -19 -184 -22 l-184 -3 -44 -30 c-24 -17 -54 -51
-68 -75 l-25 -45 -3 -865 c-2 -630 0 -880 8 -919 9 -39 23 -65 52 -97 69 -75
59 -74 733 -74 l591 0 55 -30 c191 -103 410 -70 559 85 145 151 176 351 83
537 -60 119 -194 227 -305 244 l-38 7 0 261 0 261 154 144 c86 80 157 154 160
167 8 31 -12 69 -63 118 -60 58 -83 54 -174 -27 l-75 -67 -4 128 c-3 112 -7
132 -28 172 -14 24 -44 58 -68 75 l-44 30 -186 5 -187 5 -4 25 c-4 35 -16 40
-107 40 -80 0 -82 0 -94 29 -34 82 -134 123 -215 87z m136 -85 c16 -16 29 -40
29 -53 0 -40 18 -48 107 -48 l83 0 0 -90 0 -90 -290 0 -290 0 0 90 0 90 83 0
c89 0 107 8 107 48 0 13 13 37 29 53 23 23 38 29 71 29 33 0 48 -6 71 -29z
m-431 -191 l0 -30 -159 0 c-157 0 -160 0 -190 -26 l-31 -26 0 -879 0 -880 25
-24 24 -25 544 0 543 0 22 -30 23 -30 -568 0 c-549 0 -569 1 -601 20 -18 11
-41 34 -52 52 -19 32 -20 53 -20 913 0 997 -5 930 80 973 40 20 58 22 202 22
l158 0 0 -30z m1080 8 c71 -37 80 -65 79 -248 l0 -155 -30 -23 -29 -24 0 177
0 177 -29 29 -29 29 -161 0 -161 0 0 30 0 30 158 0 c144 0 162 -2 202 -22z
m-1073 -138 l11 -30 344 2 343 3 3 28 3 27 162 -2 162 -3 3 -202 2 -201 -75
-68 c-74 -66 -75 -69 -107 -166 -29 -89 -31 -99 -17 -114 14 -14 24 -13 97 5
44 12 85 21 91 21 8 0 11 -56 11 -175 l0 -175 -27 -11 c-103 -38 -195 -110
-253 -196 -65 -99 -89 -266 -55 -379 8 -27 15 -52 15 -57 0 -4 -233 -6 -517
-5 l-518 3 -3 850 c-1 468 0 856 3 863 3 9 44 12 157 12 l154 0 11 -30z m1442
-154 c18 -19 32 -39 30 -44 -5 -13 -428 -412 -436 -412 -12 0 -73 63 -72 74 1
12 428 416 439 416 3 0 21 -15 39 -34z m-480 -489 c-2 -2 -16 -7 -31 -11 -22
-5 -26 -3 -23 9 17 52 14 50 37 27 12 -12 20 -23 17 -25z m191 -177 l0 -220
-30 0 -30 0 0 192 0 192 27 28 c15 15 28 28 30 28 2 0 3 -99 3 -220z m173
-328 c201 -99 281 -337 182 -539 -66 -134 -185 -213 -332 -221 -242 -13 -426
159 -426 398 0 177 100 320 266 381 40 14 73 18 148 16 85 -2 103 -6 162 -35z"/>
<path d="M615 1885 c-51 -18 -101 -72 -115 -124 -46 -170 165 -294 294 -173
51 48 70 124 46 188 -8 21 -7 31 5 44 36 40 4 90 -36 54 -19 -17 -22 -17 -48
-1 -41 24 -100 29 -146 12z m108 -68 c16 -11 15 -15 -17 -46 -32 -31 -38 -33
-60 -22 -31 17 -60 11 -64 -15 -2 -15 8 -28 37 -47 22 -15 48 -27 58 -27 9 0
37 19 60 42 l43 42 0 -36 c0 -92 -118 -137 -185 -70 -30 30 -39 61 -31 105 6
33 36 69 66 80 28 10 76 7 93 -6z"/>
<path d="M935 1819 c-4 -12 -3 -25 2 -30 5 -5 155 -8 354 -7 l344 3 0 25 0 25
-347 3 c-345 2 -347 2 -353 -19z"/>
<path d="M939 1674 c-9 -11 -10 -20 -2 -32 9 -15 45 -17 334 -20 178 -1 334 0
347 3 26 6 31 49 6 59 -9 3 -163 6 -344 6 -287 0 -329 -2 -341 -16z"/>
<path d="M595 1396 c-66 -29 -113 -119 -99 -191 23 -123 160 -184 270 -120 69
40 102 136 74 211 -8 21 -7 31 5 44 36 40 0 90 -38 51 -19 -19 -20 -19 -51 0
-37 22 -116 25 -161 5z m122 -59 l22 -12 -32 -38 -32 -39 -31 18 c-38 21 -67
13 -62 -18 2 -14 21 -33 51 -52 l48 -29 49 48 50 49 0 -36 c0 -47 -39 -95 -84
-103 -68 -13 -136 42 -136 110 0 80 91 139 157 102z"/>
<path d="M939 1344 c-9 -11 -10 -20 -2 -32 9 -15 38 -17 268 -17 230 0 259 2
268 17 8 12 7 21 -2 32 -12 14 -48 16 -266 16 -218 0 -254 -2 -266 -16z"/>
<path d="M934 1185 c-4 -8 -1 -22 6 -30 11 -13 61 -15 354 -13 l341 3 0 25 0
25 -348 3 c-304 2 -348 0 -353 -13z"/>
<path d="M593 911 c-46 -21 -87 -75 -98 -130 -17 -80 46 -177 129 -201 138
-38 266 103 216 236 -8 21 -7 31 6 45 8 9 14 26 12 36 -4 23 -41 29 -57 9 -11
-13 -17 -13 -49 4 -46 25 -105 25 -159 1z m137 -61 c12 -8 9 -16 -21 -46 l-37
-36 -31 18 c-29 17 -32 17 -47 2 -9 -9 -14 -23 -11 -32 7 -17 80 -66 98 -66 6
0 31 21 55 48 l44 47 0 -32 c0 -45 -17 -77 -52 -98 -40 -23 -102 -15 -135 18
-49 48 -37 147 21 176 27 13 97 13 116 1z"/>
<path d="M934 855 c-4 -8 -1 -22 6 -30 11 -13 47 -15 239 -13 l226 3 3 28 3
27 -236 0 c-201 0 -236 -2 -241 -15z"/>
<path d="M935 700 c-3 -11 -3 -24 0 -30 4 -6 82 -10 205 -10 173 0 199 2 204
16 15 39 -8 44 -210 44 -184 0 -193 -1 -199 -20z"/>
<path d="M1956 610 c-145 -161 -123 -150 -204 -101 -40 24 -76 39 -85 35 -18
-7 -28 -29 -21 -47 6 -15 167 -117 185 -117 17 0 279 285 279 303 0 18 -21 37
-39 37 -9 0 -61 -49 -115 -110z"/>
</g>
</svg>
