<?xml version="1.0" standalone="no"?>
<!DOCTYPE svg PUBLIC "-//W3C//DTD SVG 20010904//EN"
 "http://www.w3.org/TR/2001/REC-SVG-20010904/DTD/svg10.dtd">
<svg version="1.0" xmlns="http://www.w3.org/2000/svg"
 width="512.000000pt" height="512.000000pt" viewBox="0 0 512.000000 512.000000"
 preserveAspectRatio="xMidYMid meet">

<g transform="translate(0.000000,512.000000) scale(0.100000,-0.100000)"
fill="#000000" stroke="none">
<path d="M2315 5109 c-800 -83 -1501 -518 -1927 -1196 -604 -961 -490 -2237
274 -3068 425 -462 951 -737 1583 -827 119 -17 512 -16 635 1 622 86 1148 360
1572 820 349 378 572 861 650 1406 17 118 17 512 0 630 -59 416 -191 769 -410
1099 -92 140 -185 254 -315 385 -399 404 -893 653 -1462 737 -123 18 -478 26
-600 13z m1614 -1554 c53 -31 75 -68 75 -123 0 -34 -7 -58 -23 -80 -47 -66 55
-62 -1421 -62 -974 0 -1347 3 -1363 11 -67 34 -96 99 -77 169 12 44 61 91 107
101 16 4 622 6 1348 5 1301 -1 1320 -1 1354 -21z m-2 -867 c103 -57 103 -199
0 -256 -30 -16 -119 -17 -1367 -17 -1317 0 -1335 0 -1369 20 -53 31 -75 68
-75 124 0 74 41 123 117 141 17 5 624 7 1347 7 1227 -2 1317 -3 1347 -19z m3
-873 c46 -24 74 -71 74 -127 0 -55 -22 -92 -75 -123 -34 -20 -52 -20 -1375
-20 l-1341 0 -36 28 c-48 36 -61 62 -61 118 0 54 21 91 67 119 31 19 61 20
1375 20 1168 0 1347 -2 1372 -15z"/>
</g>
</svg>
