<?xml version="1.0" standalone="no"?>
<!DOCTYPE svg PUBLIC "-//W3C//DTD SVG 20010904//EN"
 "http://www.w3.org/TR/2001/REC-SVG-20010904/DTD/svg10.dtd">
<svg version="1.0" xmlns="http://www.w3.org/2000/svg"
 width="512.000000pt" height="512.000000pt" viewBox="0 0 512.000000 512.000000"
 preserveAspectRatio="xMidYMid meet">

<g transform="translate(0.000000,512.000000) scale(0.100000,-0.100000)"
fill="#000000" stroke="none">
<path d="M928 4790 c-44 -24 -75 -61 -87 -107 -8 -27 35 -547 179 -2172 178
-2005 191 -2139 212 -2181 15 -29 37 -52 63 -67 l40 -23 1226 0 1226 0 34 23
c41 28 77 79 84 121 10 56 375 4194 375 4247 0 71 -35 130 -93 158 l-43 21
-1590 0 c-1551 -1 -1590 -1 -1626 -20z m3176 -158 c4 -8 -360 -4156 -370
-4200 l-4 -22 -1175 0 c-1127 0 -1175 1 -1175 18 0 10 -83 954 -185 2097 -102
1144 -185 2087 -185 2097 0 17 66 18 1544 18 850 0 1547 -4 1550 -8z"/>
<path d="M1765 2989 c-111 -10 -223 -39 -324 -82 -72 -31 -76 -34 -74 -62 56
-716 175 -2199 179 -2222 l5 -33 1014 0 c581 0 1015 4 1015 9 0 15 189 2184
194 2224 3 27 1 37 -7 33 -7 -2 -49 -21 -93 -41 -211 -92 -492 -108 -802 -44
-52 10 -183 48 -292 83 -359 117 -595 156 -815 135z"/>
</g>
</svg>
