<?xml version="1.0" standalone="no"?>
<!DOCTYPE svg PUBLIC "-//W3C//DTD SVG 20010904//EN"
 "http://www.w3.org/TR/2001/REC-SVG-20010904/DTD/svg10.dtd">
<svg version="1.0" xmlns="http://www.w3.org/2000/svg"
 width="256.000000pt" height="256.000000pt" viewBox="0 0 256.000000 256.000000"
 preserveAspectRatio="xMidYMid meet">

<g transform="translate(0.000000,256.000000) scale(0.100000,-0.100000)"
fill="#000000" stroke="none">
<path d="M1160 2474 c-14 -2 -56 -9 -95 -15 -167 -27 -356 -110 -506 -223
-232 -175 -388 -420 -456 -718 -23 -102 -23 -374 0 -476 105 -462 439 -811
883 -923 642 -162 1287 223 1456 869 29 109 31 129 31 292 0 164 -2 183 -31
293 -118 449 -470 785 -924 883 -70 15 -307 27 -358 18z m372 -188 c370 -94
656 -380 755 -754 36 -135 38 -353 5 -486 -27 -106 -67 -204 -122 -297 -39
-65 -60 -85 -60 -56 0 23 -71 161 -114 222 -83 115 -215 224 -344 284 l-51 24
55 59 c195 211 191 523 -9 723 -206 206 -527 207 -733 1 -201 -202 -205 -512
-9 -724 l56 -60 -56 -26 c-188 -86 -361 -268 -435 -458 l-27 -70 -33 47 c-50
73 -109 207 -137 313 -23 84 -26 117 -26 252 0 136 3 167 26 255 32 120 107
276 175 365 61 81 179 193 255 243 121 80 284 143 433 167 99 15 286 4 396
-24z m-109 -315 c66 -28 151 -112 184 -180 24 -49 27 -67 27 -151 0 -76 -5
-105 -22 -143 -30 -66 -113 -151 -181 -184 -49 -24 -68 -27 -151 -27 -83 0
-102 3 -151 27 -68 33 -151 118 -181 184 -17 38 -22 68 -22 143 0 112 18 162
85 235 55 60 87 82 152 106 68 25 190 21 260 -10z m49 -875 c131 -36 282 -133
363 -234 58 -74 108 -168 136 -262 l22 -74 -51 -46 c-60 -53 -180 -126 -272
-164 -219 -89 -491 -99 -713 -25 -124 41 -261 119 -344 195 l-42 39 18 65 c72
266 283 461 562 520 62 13 253 5 321 -14z"/>
</g>
</svg>
