<?xml version="1.0" standalone="no"?>
<!DOCTYPE svg PUBLIC "-//W3C//DTD SVG 20010904//EN"
 "http://www.w3.org/TR/2001/REC-SVG-20010904/DTD/svg10.dtd">
<svg version="1.0" xmlns="http://www.w3.org/2000/svg"
 width="512.000000pt" height="512.000000pt" viewBox="0 0 512.000000 512.000000"
 preserveAspectRatio="xMidYMid meet">

<g transform="translate(0.000000,512.000000) scale(0.100000,-0.100000)"
fill="#000000" stroke="none">
<path d="M961 5104 c-169 -45 -301 -180 -346 -351 -23 -87 -23 -4299 0 -4386
45 -173 178 -307 350 -352 52 -13 267 -15 1783 -15 l1723 0 24 25 25 24 0
2511 0 2511 -25 24 -24 25 -1728 -1 c-1476 0 -1736 -2 -1782 -15z m199 -2143
l0 -1998 -92 -5 c-105 -6 -180 -30 -258 -83 l-50 -34 2 1942 3 1942 25 50 c43
86 125 154 215 176 17 4 58 7 93 8 l62 1 0 -1999z m3200 -1 l0 -2000 -1520 0
-1520 0 0 2000 0 2000 1520 0 1520 0 0 -2000z m-320 -2280 l0 -120 -1495 0
-1496 0 -24 -25 c-33 -32 -33 -78 0 -110 l24 -25 1496 0 1495 0 0 -120 0 -120
-1522 2 -1523 3 -51 27 c-76 40 -107 70 -145 140 -31 58 -34 70 -33 148 0 69
5 94 24 135 42 86 125 154 215 176 17 4 706 7 1533 8 l1502 1 0 -120z m320
-200 l0 -320 -80 0 -80 0 0 320 0 320 80 0 80 0 0 -320z"/>
<path d="M2725 4468 c-93 -17 -207 -81 -283 -158 l-69 -70 -114 0 c-187 0
-301 -43 -404 -151 -183 -192 -176 -496 17 -674 62 -58 155 -110 216 -121 l32
-6 0 -380 0 -379 25 -24 24 -25 671 0 671 0 24 25 25 24 0 379 0 380 33 6 c60
11 152 63 213 119 202 187 204 501 5 690 -105 100 -209 137 -389 137 l-114 0
-69 70 c-136 137 -323 194 -514 158z m279 -186 c132 -62 220 -185 233 -327 5
-53 12 -74 29 -92 32 -31 78 -30 111 3 24 24 25 30 19 97 -3 40 -9 82 -12 95
-6 21 -4 22 69 22 143 0 243 -56 306 -170 33 -60 36 -71 36 -150 0 -77 -3 -91
-34 -148 -54 -99 -140 -157 -253 -169 -46 -5 -68 -12 -85 -29 -23 -23 -23 -26
-23 -279 l0 -255 -560 0 -560 0 0 255 c0 253 0 256 -23 279 -17 17 -39 24 -85
29 -111 12 -200 72 -253 169 -31 58 -34 70 -34 148 0 78 3 90 34 148 62 114
146 163 290 170 l94 5 -7 -24 c-3 -13 -9 -56 -12 -96 -6 -67 -5 -73 19 -97 33
-33 79 -34 111 -3 17 17 24 39 29 91 12 132 92 254 206 314 78 42 122 52 213
48 61 -3 92 -11 142 -34z m396 -1602 l0 -40 -560 0 -560 0 0 40 0 40 560 0
560 0 0 -40z"/>
<path d="M1905 2135 c-16 -15 -25 -36 -25 -55 0 -19 9 -40 25 -55 l24 -25 911
0 911 0 24 25 c16 15 25 36 25 55 0 19 -9 40 -25 55 l-24 25 -911 0 -911 0
-24 -25z"/>
<path d="M1905 1895 c-16 -15 -25 -36 -25 -55 0 -19 9 -40 25 -55 l24 -25 911
0 911 0 24 25 c16 15 25 36 25 55 0 19 -9 40 -25 55 l-24 25 -911 0 -911 0
-24 -25z"/>
<path d="M2324 1668 c-47 -22 -56 -86 -19 -123 l24 -25 511 0 511 0 24 25 c39
38 27 102 -22 124 -32 15 -999 14 -1029 -1z"/>
</g>
</svg>
